<mxfile host="app.diagrams.net" modified="2023-09-26T09:43:19.823Z" agent="Mozilla/5.0 (Macintosh; Intel Mac OS X 10_15_7) AppleWebKit/537.36 (KHTML, like Gecko) Chrome/117.0.0.0 Safari/537.36 Edg/117.0.2045.40" etag="DaMJrv-11yGzJMscKfzL" version="21.8.2" type="github">
  <diagram name="Page-1" id="gynL85UZtJiipX6cIJ4Q">
    <mxGraphModel dx="954" dy="648" grid="1" gridSize="10" guides="1" tooltips="1" connect="1" arrows="1" fold="1" page="1" pageScale="1" pageWidth="850" pageHeight="1100" math="0" shadow="0">
      <root>
        <mxCell id="0" />
        <mxCell id="1" parent="0" />
        <mxCell id="kc0TzE_1z1zzvMxZ2xGM-2" value="film" style="whiteSpace=wrap;html=1;align=center;" vertex="1" parent="1">
          <mxGeometry x="220" y="430" width="100" height="40" as="geometry" />
        </mxCell>
        <mxCell id="kc0TzE_1z1zzvMxZ2xGM-3" value="jadwal pemutaran" style="whiteSpace=wrap;html=1;align=center;" vertex="1" parent="1">
          <mxGeometry x="410" y="550" width="100" height="40" as="geometry" />
        </mxCell>
        <mxCell id="kc0TzE_1z1zzvMxZ2xGM-4" value="pembeli" style="whiteSpace=wrap;html=1;align=center;" vertex="1" parent="1">
          <mxGeometry x="590" y="420" width="100" height="40" as="geometry" />
        </mxCell>
        <mxCell id="kc0TzE_1z1zzvMxZ2xGM-5" value="membeli" style="whiteSpace=wrap;html=1;align=center;" vertex="1" parent="1">
          <mxGeometry x="390" y="310" width="100" height="40" as="geometry" />
        </mxCell>
        <mxCell id="kc0TzE_1z1zzvMxZ2xGM-6" value="genre" style="ellipse;shape=doubleEllipse;margin=3;whiteSpace=wrap;html=1;align=center;" vertex="1" parent="1">
          <mxGeometry x="220" y="510" width="100" height="40" as="geometry" />
        </mxCell>
        <mxCell id="kc0TzE_1z1zzvMxZ2xGM-7" value="IDFilm" style="ellipse;whiteSpace=wrap;html=1;align=center;fontStyle=4;" vertex="1" parent="1">
          <mxGeometry x="230" y="330" width="100" height="40" as="geometry" />
        </mxCell>
        <mxCell id="kc0TzE_1z1zzvMxZ2xGM-8" value="judul film" style="ellipse;whiteSpace=wrap;html=1;align=center;" vertex="1" parent="1">
          <mxGeometry x="90" y="380" width="100" height="40" as="geometry" />
        </mxCell>
        <mxCell id="kc0TzE_1z1zzvMxZ2xGM-9" value="lama waktu" style="ellipse;whiteSpace=wrap;html=1;align=center;" vertex="1" parent="1">
          <mxGeometry x="80" y="440" width="100" height="40" as="geometry" />
        </mxCell>
      </root>
    </mxGraphModel>
  </diagram>
</mxfile>
